{
	"asset":{
		"generator":"Khronos glTF Blender I/O v4.2.69",
		"version":"2.0"
	},
	"extensionsUsed":[
		"KHR_materials_specular"
	],
	"scene":0,
	"scenes":[
		{
			"name":"Scene",
			"nodes":[
				0
			]
		}
	],
	"nodes":[
		{
			"mesh":0,
			"name":"terrain"
		}
	],
	"materials":[
		{
			"doubleSided":true,
			"extensions":{
				"KHR_materials_specular":{
					"specularFactor":0
				}
			},
			"name":"terrain",
			"pbrMetallicRoughness":{
				"baseColorTexture":{
					"index":0
				},
				"metallicFactor":0
			}
		},
		{
			"doubleSided":true,
			"extensions":{
				"KHR_materials_specular":{
					"specularFactor":0
				}
			},
			"name":"terrain1",
			"pbrMetallicRoughness":{
				"baseColorTexture":{
					"index":1
				},
				"metallicFactor":0
			}
		}
	],
	"meshes":[
		{
			"name":"terrain",
			"primitives":[
				{
					"attributes":{
						"POSITION":0,
						"NORMAL":1,
						"TEXCOORD_0":2,
						"COLOR_0":3,
						"COLOR_1":4
					},
					"indices":5,
					"material":0
				},
				{
					"attributes":{
						"POSITION":6,
						"NORMAL":7,
						"TEXCOORD_0":8,
						"COLOR_0":9,
						"COLOR_1":10
					},
					"indices":11,
					"material":1
				}
			]
		}
	],
	"textures":[
		{
			"sampler":0,
			"source":0
		},
		{
			"sampler":0,
			"source":1
		}
	],
	"images":[
		{
			"mimeType":"image/jpeg",
			"name":"terrain",
			"uri":"textures/terrain.jpg"
		},
		{
			"mimeType":"image/jpeg",
			"name":"terrain1",
			"uri":"textures/terrain1.jpg"
		}
	],
	"accessors":[
		{
			"bufferView":0,
			"componentType":5126,
			"count":604656,
			"max":[
				290.49993896484375,
				118.16665649414062,
				379.98297119140625
			],
			"min":[
				-407.9892272949219,
				-16.738052368164062,
				-295.4992370605469
			],
			"type":"VEC3"
		},
		{
			"bufferView":1,
			"componentType":5126,
			"count":604656,
			"type":"VEC3"
		},
		{
			"bufferView":2,
			"componentType":5126,
			"count":604656,
			"type":"VEC2"
		},
		{
			"bufferView":3,
			"componentType":5126,
			"count":604656,
			"type":"VEC3"
		},
		{
			"bufferView":4,
			"componentType":5126,
			"count":604656,
			"type":"VEC3"
		},
		{
			"bufferView":5,
			"componentType":5125,
			"count":619245,
			"type":"SCALAR"
		},
		{
			"bufferView":6,
			"componentType":5126,
			"count":667923,
			"max":[
				291.3337097167969,
				118.73721313476562,
				385.026611328125
			],
			"min":[
				-407.9892272949219,
				-16.738052368164062,
				-298.6427307128906
			],
			"type":"VEC3"
		},
		{
			"bufferView":7,
			"componentType":5126,
			"count":667923,
			"type":"VEC3"
		},
		{
			"bufferView":8,
			"componentType":5126,
			"count":667923,
			"type":"VEC2"
		},
		{
			"bufferView":9,
			"componentType":5126,
			"count":667923,
			"type":"VEC3"
		},
		{
			"bufferView":10,
			"componentType":5126,
			"count":667923,
			"type":"VEC3"
		},
		{
			"bufferView":11,
			"componentType":5125,
			"count":683463,
			"type":"SCALAR"
		}
	],
	"bufferViews":[
		{
			"buffer":0,
			"byteLength":7255872,
			"byteOffset":0,
			"target":34962
		},
		{
			"buffer":0,
			"byteLength":7255872,
			"byteOffset":7255872,
			"target":34962
		},
		{
			"buffer":0,
			"byteLength":4837248,
			"byteOffset":14511744,
			"target":34962
		},
		{
			"buffer":0,
			"byteLength":7255872,
			"byteOffset":19348992,
			"target":34962
		},
		{
			"buffer":0,
			"byteLength":7255872,
			"byteOffset":26604864,
			"target":34962
		},
		{
			"buffer":0,
			"byteLength":2476980,
			"byteOffset":33860736,
			"target":34963
		},
		{
			"buffer":0,
			"byteLength":8015076,
			"byteOffset":36337716,
			"target":34962
		},
		{
			"buffer":0,
			"byteLength":8015076,
			"byteOffset":44352792,
			"target":34962
		},
		{
			"buffer":0,
			"byteLength":5343384,
			"byteOffset":52367868,
			"target":34962
		},
		{
			"buffer":0,
			"byteLength":8015076,
			"byteOffset":57711252,
			"target":34962
		},
		{
			"buffer":0,
			"byteLength":8015076,
			"byteOffset":65726328,
			"target":34962
		},
		{
			"buffer":0,
			"byteLength":2733852,
			"byteOffset":73741404,
			"target":34963
		}
	],
	"samplers":[
		{
			"magFilter":9729,
			"minFilter":9987
		}
	],
	"buffers":[
		{
			"byteLength":76475256,
			"uri":"scene.bin"
		}
	]
}
