{
	"asset":{
		"generator":"Khronos glTF Blender I/O v4.2.69",
		"version":"2.0"
	},
	"extensionsUsed":[
		"KHR_materials_specular"
	],
	"scene":0,
	"scenes":[
		{
			"name":"Scene",
			"nodes":[
				0
			]
		}
	],
	"nodes":[
		{
			"mesh":0,
			"name":"Parcela Esteban Ultima"
		}
	],
	"materials":[
		{
			"doubleSided":true,
			"extensions":{
				"KHR_materials_specular":{
					"specularFactor":0
				}
			},
			"name":"Parcela_Esteban_Ultima.001",
			"pbrMetallicRoughness":{
				"baseColorTexture":{
					"index":0
				},
				"metallicFactor":0
			}
		},
		{
			"doubleSided":true,
			"extensions":{
				"KHR_materials_specular":{
					"specularFactor":0
				}
			},
			"name":"Parcela_Esteban_Ultima1.001",
			"pbrMetallicRoughness":{
				"baseColorTexture":{
					"index":1
				},
				"metallicFactor":0
			}
		},
		{
			"doubleSided":true,
			"extensions":{
				"KHR_materials_specular":{
					"specularFactor":0
				}
			},
			"name":"Parcela_Esteban_Ultima2.001",
			"pbrMetallicRoughness":{
				"baseColorTexture":{
					"index":2
				},
				"metallicFactor":0
			}
		}
	],
	"meshes":[
		{
			"name":"Parcela Esteban Ultima.001",
			"primitives":[
				{
					"attributes":{
						"POSITION":0,
						"NORMAL":1,
						"TEXCOORD_0":2,
						"COLOR_0":3,
						"COLOR_1":4
					},
					"indices":5,
					"material":0
				},
				{
					"attributes":{
						"POSITION":6,
						"NORMAL":7,
						"TEXCOORD_0":8,
						"COLOR_0":9,
						"COLOR_1":10
					},
					"indices":11,
					"material":1
				},
				{
					"attributes":{
						"POSITION":12,
						"NORMAL":13,
						"TEXCOORD_0":14,
						"COLOR_0":15,
						"COLOR_1":16
					},
					"indices":17,
					"material":2
				}
			]
		}
	],
	"textures":[
		{
			"sampler":0,
			"source":0
		},
		{
			"sampler":0,
			"source":1
		},
		{
			"sampler":0,
			"source":2
		}
	],
	"images":[
		{
			"mimeType":"image/jpeg",
			"name":"Parcela Esteban Ultima",
			"uri":"textures/Parcela%20Esteban%20Ultima.jpg"
		},
		{
			"mimeType":"image/jpeg",
			"name":"Parcela Esteban Ultima1",
			"uri":"textures/Parcela%20Esteban%20Ultima1.jpg"
		},
		{
			"mimeType":"image/jpeg",
			"name":"Parcela Esteban Ultima2",
			"uri":"textures/Parcela%20Esteban%20Ultima2.jpg"
		}
	],
	"accessors":[
		{
			"bufferView":0,
			"componentType":5126,
			"count":264433,
			"max":[
				338.8304138183594,
				113.47360229492188,
				339.621826171875
			],
			"min":[
				-327.4692687988281,
				-15.87429428100586,
				-333.2857666015625
			],
			"type":"VEC3"
		},
		{
			"bufferView":1,
			"componentType":5126,
			"count":264433,
			"type":"VEC3"
		},
		{
			"bufferView":2,
			"componentType":5126,
			"count":264433,
			"type":"VEC2"
		},
		{
			"bufferView":3,
			"componentType":5121,
			"count":264433,
			"normalized":true,
			"type":"VEC4"
		},
		{
			"bufferView":4,
			"componentType":5126,
			"count":264433,
			"type":"VEC3"
		},
		{
			"bufferView":5,
			"componentType":5125,
			"count":265959,
			"type":"SCALAR"
		},
		{
			"bufferView":6,
			"componentType":5126,
			"count":277764,
			"max":[
				342.85888671875,
				113.29293823242188,
				337.29156494140625
			],
			"min":[
				-327.4692687988281,
				-14.55398178100586,
				-328.907470703125
			],
			"type":"VEC3"
		},
		{
			"bufferView":7,
			"componentType":5126,
			"count":277764,
			"type":"VEC3"
		},
		{
			"bufferView":8,
			"componentType":5126,
			"count":277764,
			"type":"VEC2"
		},
		{
			"bufferView":9,
			"componentType":5121,
			"count":277764,
			"normalized":true,
			"type":"VEC4"
		},
		{
			"bufferView":10,
			"componentType":5126,
			"count":277764,
			"type":"VEC3"
		},
		{
			"bufferView":11,
			"componentType":5125,
			"count":279441,
			"type":"SCALAR"
		},
		{
			"bufferView":12,
			"componentType":5126,
			"count":260130,
			"max":[
				332.2315979003906,
				113.29293823242188,
				333.929931640625
			],
			"min":[
				-323.2246398925781,
				-13.96145248413086,
				-333.2857666015625
			],
			"type":"VEC3"
		},
		{
			"bufferView":13,
			"componentType":5126,
			"count":260130,
			"type":"VEC3"
		},
		{
			"bufferView":14,
			"componentType":5126,
			"count":260130,
			"type":"VEC2"
		},
		{
			"bufferView":15,
			"componentType":5121,
			"count":260130,
			"normalized":true,
			"type":"VEC4"
		},
		{
			"bufferView":16,
			"componentType":5126,
			"count":260130,
			"type":"VEC3"
		},
		{
			"bufferView":17,
			"componentType":5125,
			"count":261684,
			"type":"SCALAR"
		}
	],
	"bufferViews":[
		{
			"buffer":0,
			"byteLength":3173196,
			"byteOffset":0,
			"target":34962
		},
		{
			"buffer":0,
			"byteLength":3173196,
			"byteOffset":3173196,
			"target":34962
		},
		{
			"buffer":0,
			"byteLength":2115464,
			"byteOffset":6346392,
			"target":34962
		},
		{
			"buffer":0,
			"byteLength":1057732,
			"byteOffset":8461856,
			"target":34962
		},
		{
			"buffer":0,
			"byteLength":3173196,
			"byteOffset":9519588,
			"target":34962
		},
		{
			"buffer":0,
			"byteLength":1063836,
			"byteOffset":12692784,
			"target":34963
		},
		{
			"buffer":0,
			"byteLength":3333168,
			"byteOffset":13756620,
			"target":34962
		},
		{
			"buffer":0,
			"byteLength":3333168,
			"byteOffset":17089788,
			"target":34962
		},
		{
			"buffer":0,
			"byteLength":2222112,
			"byteOffset":20422956,
			"target":34962
		},
		{
			"buffer":0,
			"byteLength":1111056,
			"byteOffset":22645068,
			"target":34962
		},
		{
			"buffer":0,
			"byteLength":3333168,
			"byteOffset":23756124,
			"target":34962
		},
		{
			"buffer":0,
			"byteLength":1117764,
			"byteOffset":27089292,
			"target":34963
		},
		{
			"buffer":0,
			"byteLength":3121560,
			"byteOffset":28207056,
			"target":34962
		},
		{
			"buffer":0,
			"byteLength":3121560,
			"byteOffset":31328616,
			"target":34962
		},
		{
			"buffer":0,
			"byteLength":2081040,
			"byteOffset":34450176,
			"target":34962
		},
		{
			"buffer":0,
			"byteLength":1040520,
			"byteOffset":36531216,
			"target":34962
		},
		{
			"buffer":0,
			"byteLength":3121560,
			"byteOffset":37571736,
			"target":34962
		},
		{
			"buffer":0,
			"byteLength":1046736,
			"byteOffset":40693296,
			"target":34963
		}
	],
	"samplers":[
		{
			"magFilter":9729,
			"minFilter":9987
		}
	],
	"buffers":[
		{
			"byteLength":41740032,
			"uri":"scene.bin"
		}
	]
}
